<svg width="27" height="26" viewBox="0 0 27 26" fill="none" xmlns="http://www.w3.org/2000/svg">
<path fill-rule="evenodd" clip-rule="evenodd" d="M14.5243 7.58334C15.721 7.58334 16.691 8.55339 16.691 9.75001V22.75L11.2743 19.5L5.85767 22.75V9.75001C5.85767 8.55339 6.82772 7.58334 8.02433 7.58334H14.5243Z" stroke="#4B465C" stroke-width="1.75" stroke-linecap="round" stroke-linejoin="round"/>
<path fill-rule="evenodd" clip-rule="evenodd" d="M14.5243 7.58334C15.721 7.58334 16.691 8.55339 16.691 9.75001V22.75L11.2743 19.5L5.85767 22.75V9.75001C5.85767 8.55339 6.82772 7.58334 8.02433 7.58334H14.5243Z" stroke="white" stroke-opacity="0.2" stroke-width="1.75" stroke-linecap="round" stroke-linejoin="round"/>
<path d="M10.4778 4.33334C10.8654 3.66198 11.5821 3.24886 12.3574 3.25H18.8574C20.054 3.25 21.024 4.22005 21.024 5.41667V18.4167L19.9407 17.7667" stroke="#4B465C" stroke-width="1.75" stroke-linecap="round" stroke-linejoin="round"/>
<path d="M10.4778 4.33334C10.8654 3.66198 11.5821 3.24886 12.3574 3.25H18.8574C20.054 3.25 21.024 4.22005 21.024 5.41667V18.4167L19.9407 17.7667" stroke="white" stroke-opacity="0.2" stroke-width="1.75" stroke-linecap="round" stroke-linejoin="round"/>
</svg>
