<svg width="27" height="26" viewBox="0 0 27 26" fill="none" xmlns="http://www.w3.org/2000/svg">
<path fill-rule="evenodd" clip-rule="evenodd" d="M13.4408 3.24994C13.5838 3.24994 13.7257 3.24994 13.8665 3.24994C10.9948 5.91837 10.4378 10.2568 12.5424 13.5641C14.647 16.8714 18.8129 18.2043 22.4465 16.7331C20.5694 21.2497 15.6365 23.6765 10.913 22.4073C6.18943 21.138 3.13729 16.5655 3.77684 11.7164C4.41639 6.86728 8.54969 3.24245 13.4408 3.24127V3.24994Z" stroke="#4B465C" stroke-width="2" stroke-linecap="round" stroke-linejoin="round"/>
<path fill-rule="evenodd" clip-rule="evenodd" d="M13.4408 3.24994C13.5838 3.24994 13.7257 3.24994 13.8665 3.24994C10.9948 5.91837 10.4378 10.2568 12.5424 13.5641C14.647 16.8714 18.8129 18.2043 22.4465 16.7331C20.5694 21.2497 15.6365 23.6765 10.913 22.4073C6.18943 21.138 3.13729 16.5655 3.77684 11.7164C4.41639 6.86728 8.54969 3.24245 13.4408 3.24127V3.24994Z" stroke="white" stroke-opacity="0.2" stroke-width="2" stroke-linecap="round" stroke-linejoin="round"/>
<path d="M18.8576 4.33334C18.8576 5.52996 19.8276 6.50001 21.0243 6.50001C19.8276 6.50001 18.8576 7.47006 18.8576 8.66668C18.8576 7.47006 17.8875 6.50001 16.6909 6.50001C17.8875 6.50001 18.8576 5.52996 18.8576 4.33334" stroke="#4B465C" stroke-width="2" stroke-linecap="round" stroke-linejoin="round"/>
<path d="M18.8576 4.33334C18.8576 5.52996 19.8276 6.50001 21.0243 6.50001C19.8276 6.50001 18.8576 7.47006 18.8576 8.66668C18.8576 7.47006 17.8875 6.50001 16.6909 6.50001C17.8875 6.50001 18.8576 5.52996 18.8576 4.33334" stroke="white" stroke-opacity="0.2" stroke-width="2" stroke-linecap="round" stroke-linejoin="round"/>
<path d="M21.0242 10.9167C20.4719 10.9167 20.0242 11.3644 20.0242 11.9167C20.0242 12.469 20.4719 12.9167 21.0242 12.9167V10.9167ZM23.1908 12.9167C23.7431 12.9167 24.1908 12.469 24.1908 11.9167C24.1908 11.3644 23.7431 10.9167 23.1908 10.9167V12.9167ZM23.1075 10.8333C23.1075 10.2811 22.6598 9.83334 22.1075 9.83334C21.5552 9.83334 21.1075 10.2811 21.1075 10.8333H23.1075ZM21.1075 13C21.1075 13.5523 21.5552 14 22.1075 14C22.6598 14 23.1075 13.5523 23.1075 13H21.1075ZM21.0242 12.9167H23.1908V10.9167H21.0242V12.9167ZM21.1075 10.8333V13H23.1075V10.8333H21.1075Z" fill="#4B465C"/>
<path d="M21.0242 10.9167C20.4719 10.9167 20.0242 11.3644 20.0242 11.9167C20.0242 12.469 20.4719 12.9167 21.0242 12.9167V10.9167ZM23.1908 12.9167C23.7431 12.9167 24.1908 12.469 24.1908 11.9167C24.1908 11.3644 23.7431 10.9167 23.1908 10.9167V12.9167ZM23.1075 10.8333C23.1075 10.2811 22.6598 9.83334 22.1075 9.83334C21.5552 9.83334 21.1075 10.2811 21.1075 10.8333H23.1075ZM21.1075 13C21.1075 13.5523 21.5552 14 22.1075 14C22.6598 14 23.1075 13.5523 23.1075 13H21.1075ZM21.0242 12.9167H23.1908V10.9167H21.0242V12.9167ZM21.1075 10.8333V13H23.1075V10.8333H21.1075Z" fill="white" fill-opacity="0.2"/>
</svg>
