<svg width="33" height="38" viewBox="0 0 33 38" fill="none" xmlns="http://www.w3.org/2000/svg">
<path d="M11.2742 11.4167C11.2742 10.22 12.2442 9.25 13.4408 9.25C14.6375 9.25 15.6075 10.22 15.6075 11.4167C18.1427 12.6154 19.8094 15.1154 19.9408 17.9167V21.1667C20.1062 22.5325 20.9103 23.7387 22.1075 24.4167H4.77417C5.97138 23.7387 6.7755 22.5325 6.94084 21.1667V17.9167C7.07232 15.1154 8.73899 12.6154 11.2742 11.4167" stroke="#4B465C" stroke-width="2" stroke-linecap="round" stroke-linejoin="round"/>
<path d="M11.2742 11.4167C11.2742 10.22 12.2442 9.25 13.4408 9.25C14.6375 9.25 15.6075 10.22 15.6075 11.4167C18.1427 12.6154 19.8094 15.1154 19.9408 17.9167V21.1667C20.1062 22.5325 20.9103 23.7387 22.1075 24.4167H4.77417C5.97138 23.7387 6.7755 22.5325 6.94084 21.1667V17.9167C7.07232 15.1154 8.73899 12.6154 11.2742 11.4167" stroke="white" stroke-opacity="0.2" stroke-width="2" stroke-linecap="round" stroke-linejoin="round"/>
<path d="M10.1909 24.4167V25.5C10.1909 27.2949 11.646 28.75 13.4409 28.75C15.2358 28.75 16.6909 27.2949 16.6909 25.5V24.4167" stroke="#4B465C" stroke-width="2" stroke-linecap="round" stroke-linejoin="round"/>
<path d="M10.1909 24.4167V25.5C10.1909 27.2949 11.646 28.75 13.4409 28.75C15.2358 28.75 16.6909 27.2949 16.6909 25.5V24.4167" stroke="white" stroke-opacity="0.2" stroke-width="2" stroke-linecap="round" stroke-linejoin="round"/>
<circle cx="23.6709" cy="11.2617" r="9" fill="#EA5455"/>
<path d="M18.9713 13.933V12.763L23.4563 6.9H25.2633L20.8433 12.763L19.9983 12.503H27.2133V13.933H18.9713ZM23.9633 16V13.933L24.0153 12.503V10.67H25.6013V16H23.9633Z" fill="white"/>
</svg>
