<svg width="48" height="48" viewBox="0 0 48 48" fill="none" xmlns="http://www.w3.org/2000/svg">
<g filter="url(#filter0_d_1_10772)">
<rect x="4" y="2" width="40" height="40" rx="6" fill="#D9B414" shape-rendering="crispEdges"/>
<path d="M19.13 28V26.434L24.134 21.682C24.554 21.286 24.866 20.938 25.07 20.638C25.274 20.338 25.406 20.062 25.466 19.81C25.538 19.546 25.574 19.3 25.574 19.072C25.574 18.496 25.376 18.052 24.98 17.74C24.584 17.416 24.002 17.254 23.234 17.254C22.622 17.254 22.064 17.362 21.56 17.578C21.068 17.794 20.642 18.124 20.282 18.568L18.644 17.308C19.136 16.648 19.796 16.138 20.624 15.778C21.464 15.406 22.4 15.22 23.432 15.22C24.344 15.22 25.136 15.37 25.808 15.67C26.492 15.958 27.014 16.372 27.374 16.912C27.746 17.452 27.932 18.094 27.932 18.838C27.932 19.246 27.878 19.654 27.77 20.062C27.662 20.458 27.458 20.878 27.158 21.322C26.858 21.766 26.42 22.264 25.844 22.816L21.542 26.902L21.056 26.02H28.418V28H19.13Z" fill="white"/>
</g>
<defs>
<filter id="filter0_d_1_10772" x="0" y="0" width="48" height="48" filterUnits="userSpaceOnUse" color-interpolation-filters="sRGB">
<feFlood flood-opacity="0" result="BackgroundImageFix"/>
<feColorMatrix in="SourceAlpha" type="matrix" values="0 0 0 0 0 0 0 0 0 0 0 0 0 0 0 0 0 0 127 0" result="hardAlpha"/>
<feOffset dy="2"/>
<feGaussianBlur stdDeviation="2"/>
<feComposite in2="hardAlpha" operator="out"/>
<feColorMatrix type="matrix" values="0 0 0 0 0.647059 0 0 0 0 0.639216 0 0 0 0 0.682353 0 0 0 0.3 0"/>
<feBlend mode="normal" in2="BackgroundImageFix" result="effect1_dropShadow_1_10772"/>
<feBlend mode="normal" in="SourceGraphic" in2="effect1_dropShadow_1_10772" result="shape"/>
</filter>
</defs>
</svg>
