<svg width="22" height="22" viewBox="0 0 22 22" fill="none" xmlns="http://www.w3.org/2000/svg">
<path d="M2.75 17.4167C5.30256 15.9429 8.44744 15.9429 11 17.4167C13.5526 15.9429 16.6974 15.9429 19.25 17.4167" stroke="#4B465C" stroke-width="1.75" stroke-linecap="round" stroke-linejoin="round"/>
<path d="M2.75 17.4167C5.30256 15.9429 8.44744 15.9429 11 17.4167C13.5526 15.9429 16.6974 15.9429 19.25 17.4167" stroke="white" stroke-opacity="0.2" stroke-width="1.75" stroke-linecap="round" stroke-linejoin="round"/>
<path d="M2.75 5.5C5.30256 4.02628 8.44744 4.02628 11 5.5C13.5526 4.02628 16.6974 4.02628 19.25 5.5" stroke="#4B465C" stroke-width="1.75" stroke-linecap="round" stroke-linejoin="round"/>
<path d="M2.75 5.5C5.30256 4.02628 8.44744 4.02628 11 5.5C13.5526 4.02628 16.6974 4.02628 19.25 5.5" stroke="white" stroke-opacity="0.2" stroke-width="1.75" stroke-linecap="round" stroke-linejoin="round"/>
<path d="M2.75008 5.5V17.4167" stroke="#4B465C" stroke-width="1.75" stroke-linecap="round" stroke-linejoin="round"/>
<path d="M2.75008 5.5V17.4167" stroke="white" stroke-opacity="0.2" stroke-width="1.75" stroke-linecap="round" stroke-linejoin="round"/>
<path d="M11.0001 5.5V17.4167" stroke="#4B465C" stroke-width="1.75" stroke-linecap="round" stroke-linejoin="round"/>
<path d="M11.0001 5.5V17.4167" stroke="white" stroke-opacity="0.2" stroke-width="1.75" stroke-linecap="round" stroke-linejoin="round"/>
<path d="M19.2501 5.5V17.4167" stroke="#4B465C" stroke-width="1.75" stroke-linecap="round" stroke-linejoin="round"/>
<path d="M19.2501 5.5V17.4167" stroke="white" stroke-opacity="0.2" stroke-width="1.75" stroke-linecap="round" stroke-linejoin="round"/>
</svg>
