<svg width="22" height="22" viewBox="0 0 22 22" fill="none" xmlns="http://www.w3.org/2000/svg">
<path d="M2.75 19.25V7.33332L11 3.66666L19.25 7.33332V19.25" stroke="#4B465C" stroke-width="1.75" stroke-linecap="round" stroke-linejoin="round"/>
<path d="M2.75 19.25V7.33332L11 3.66666L19.25 7.33332V19.25" stroke="white" stroke-opacity="0.2" stroke-width="1.75" stroke-linecap="round" stroke-linejoin="round"/>
<path d="M11.9167 11.9167H15.5834V19.25H6.41675V13.75H11.9167" stroke="#4B465C" stroke-width="1.75" stroke-linecap="round" stroke-linejoin="round"/>
<path d="M11.9167 11.9167H15.5834V19.25H6.41675V13.75H11.9167" stroke="white" stroke-opacity="0.2" stroke-width="1.75" stroke-linecap="round" stroke-linejoin="round"/>
<path d="M11.9167 19.25V11C11.9167 10.4937 11.5063 10.0833 11 10.0833H9.16667C8.66041 10.0833 8.25 10.4937 8.25 11V13.75" stroke="#4B465C" stroke-width="1.75" stroke-linecap="round" stroke-linejoin="round"/>
<path d="M11.9167 19.25V11C11.9167 10.4937 11.5063 10.0833 11 10.0833H9.16667C8.66041 10.0833 8.25 10.4937 8.25 11V13.75" stroke="white" stroke-opacity="0.2" stroke-width="1.75" stroke-linecap="round" stroke-linejoin="round"/>
</svg>
