<svg width="22" height="22" viewBox="0 0 22 22" fill="none" xmlns="http://www.w3.org/2000/svg">
<ellipse cx="6.41658" cy="15.5833" rx="1.83333" ry="1.83333" stroke="#4B465C" stroke-width="1.75" stroke-linecap="round" stroke-linejoin="round"/>
<ellipse cx="6.41658" cy="15.5833" rx="1.83333" ry="1.83333" stroke="white" stroke-opacity="0.2" stroke-width="1.75" stroke-linecap="round" stroke-linejoin="round"/>
<circle cx="15.5833" cy="15.5833" r="1.83333" stroke="#4B465C" stroke-width="1.75" stroke-linecap="round" stroke-linejoin="round"/>
<circle cx="15.5833" cy="15.5833" r="1.83333" stroke="white" stroke-opacity="0.2" stroke-width="1.75" stroke-linecap="round" stroke-linejoin="round"/>
<path d="M4.58333 16.4583C5.06658 16.4583 5.45833 16.0666 5.45833 15.5833C5.45833 15.1001 5.06658 14.7083 4.58333 14.7083V16.4583ZM2.75 15.5833H1.875C1.875 16.0666 2.26675 16.4583 2.75 16.4583V15.5833ZM11.9167 4.58334H12.7917C12.7917 4.10009 12.3999 3.70834 11.9167 3.70834V4.58334ZM11.0417 15.5833C11.0417 16.0666 11.4334 16.4583 11.9167 16.4583C12.3999 16.4583 12.7917 16.0666 12.7917 15.5833H11.0417ZM8.25 14.7083C7.76675 14.7083 7.375 15.1001 7.375 15.5833C7.375 16.0666 7.76675 16.4583 8.25 16.4583V14.7083ZM13.75 16.4583C14.2332 16.4583 14.625 16.0666 14.625 15.5833C14.625 15.1001 14.2332 14.7083 13.75 14.7083V16.4583ZM17.4167 14.7083C16.9334 14.7083 16.5417 15.1001 16.5417 15.5833C16.5417 16.0666 16.9334 16.4583 17.4167 16.4583V14.7083ZM19.25 15.5833V16.4583C19.7332 16.4583 20.125 16.0666 20.125 15.5833H19.25ZM19.25 10.0833H20.125C20.125 9.60009 19.7332 9.20834 19.25 9.20834V10.0833ZM11.9167 9.20834C11.4334 9.20834 11.0417 9.60009 11.0417 10.0833C11.0417 10.5666 11.4334 10.9583 11.9167 10.9583V9.20834ZM11.9167 4.62501C11.4334 4.62501 11.0417 5.01676 11.0417 5.50001C11.0417 5.98326 11.4334 6.37501 11.9167 6.37501V4.62501ZM16.5 5.50001L17.2503 5.04983C17.0922 4.78627 16.8074 4.62501 16.5 4.62501V5.50001ZM18.4997 10.5335C18.7483 10.9479 19.2858 11.0823 19.7002 10.8336C20.1146 10.585 20.2489 10.0475 20.0003 9.63316L18.4997 10.5335ZM4.58333 14.7083H2.75V16.4583H4.58333V14.7083ZM3.625 15.5833V5.50001H1.875V15.5833H3.625ZM3.625 5.50001C3.625 5.477 3.64365 5.45834 3.66667 5.45834V3.70834C2.67716 3.70834 1.875 4.5105 1.875 5.50001H3.625ZM3.66667 5.45834H11.9167V3.70834H3.66667V5.45834ZM11.0417 4.58334V15.5833H12.7917V4.58334H11.0417ZM8.25 16.4583H13.75V14.7083H8.25V16.4583ZM17.4167 16.4583H19.25V14.7083H17.4167V16.4583ZM20.125 15.5833V10.0833H18.375V15.5833H20.125ZM19.25 9.20834H11.9167V10.9583H19.25V9.20834ZM11.9167 6.37501H16.5V4.62501H11.9167V6.37501ZM15.7497 5.95019L18.4997 10.5335L20.0003 9.63316L17.2503 5.04983L15.7497 5.95019Z" fill="#4B465C"/>
<path d="M4.58333 16.4583C5.06658 16.4583 5.45833 16.0666 5.45833 15.5833C5.45833 15.1001 5.06658 14.7083 4.58333 14.7083V16.4583ZM2.75 15.5833H1.875C1.875 16.0666 2.26675 16.4583 2.75 16.4583V15.5833ZM11.9167 4.58334H12.7917C12.7917 4.10009 12.3999 3.70834 11.9167 3.70834V4.58334ZM11.0417 15.5833C11.0417 16.0666 11.4334 16.4583 11.9167 16.4583C12.3999 16.4583 12.7917 16.0666 12.7917 15.5833H11.0417ZM8.25 14.7083C7.76675 14.7083 7.375 15.1001 7.375 15.5833C7.375 16.0666 7.76675 16.4583 8.25 16.4583V14.7083ZM13.75 16.4583C14.2332 16.4583 14.625 16.0666 14.625 15.5833C14.625 15.1001 14.2332 14.7083 13.75 14.7083V16.4583ZM17.4167 14.7083C16.9334 14.7083 16.5417 15.1001 16.5417 15.5833C16.5417 16.0666 16.9334 16.4583 17.4167 16.4583V14.7083ZM19.25 15.5833V16.4583C19.7332 16.4583 20.125 16.0666 20.125 15.5833H19.25ZM19.25 10.0833H20.125C20.125 9.60009 19.7332 9.20834 19.25 9.20834V10.0833ZM11.9167 9.20834C11.4334 9.20834 11.0417 9.60009 11.0417 10.0833C11.0417 10.5666 11.4334 10.9583 11.9167 10.9583V9.20834ZM11.9167 4.62501C11.4334 4.62501 11.0417 5.01676 11.0417 5.50001C11.0417 5.98326 11.4334 6.37501 11.9167 6.37501V4.62501ZM16.5 5.50001L17.2503 5.04983C17.0922 4.78627 16.8074 4.62501 16.5 4.62501V5.50001ZM18.4997 10.5335C18.7483 10.9479 19.2858 11.0823 19.7002 10.8336C20.1146 10.585 20.2489 10.0475 20.0003 9.63316L18.4997 10.5335ZM4.58333 14.7083H2.75V16.4583H4.58333V14.7083ZM3.625 15.5833V5.50001H1.875V15.5833H3.625ZM3.625 5.50001C3.625 5.477 3.64365 5.45834 3.66667 5.45834V3.70834C2.67716 3.70834 1.875 4.5105 1.875 5.50001H3.625ZM3.66667 5.45834H11.9167V3.70834H3.66667V5.45834ZM11.0417 4.58334V15.5833H12.7917V4.58334H11.0417ZM8.25 16.4583H13.75V14.7083H8.25V16.4583ZM17.4167 16.4583H19.25V14.7083H17.4167V16.4583ZM20.125 15.5833V10.0833H18.375V15.5833H20.125ZM19.25 9.20834H11.9167V10.9583H19.25V9.20834ZM11.9167 6.37501H16.5V4.62501H11.9167V6.37501ZM15.7497 5.95019L18.4997 10.5335L20.0003 9.63316L17.2503 5.04983L15.7497 5.95019Z" fill="white" fill-opacity="0.2"/>
</svg>
