<svg width="209" height="46" viewBox="0 0 209 46" fill="none" xmlns="http://www.w3.org/2000/svg">
<g filter="url(#filter0_d_1_24179)">
<rect x="4" y="2" width="201" height="38" rx="6" fill="#D9B414" shape-rendering="crispEdges"/>
<path d="M33.165 15.5H34.665V26H33.165V15.5ZM27.135 26H25.635V15.5H27.135V26ZM33.3 21.32H26.985V20.015H33.3V21.32ZM43.0047 26V24.32L42.9297 24.005V21.14C42.9297 20.53 42.7497 20.06 42.3897 19.73C42.0397 19.39 41.5097 19.22 40.7997 19.22C40.3297 19.22 39.8697 19.3 39.4197 19.46C38.9697 19.61 38.5897 19.815 38.2797 20.075L37.6797 18.995C38.0897 18.665 38.5797 18.415 39.1497 18.245C39.7297 18.065 40.3347 17.975 40.9647 17.975C42.0547 17.975 42.8947 18.24 43.4847 18.77C44.0747 19.3 44.3697 20.11 44.3697 21.2V26H43.0047ZM40.3947 26.09C39.8047 26.09 39.2847 25.99 38.8347 25.79C38.3947 25.59 38.0547 25.315 37.8147 24.965C37.5747 24.605 37.4547 24.2 37.4547 23.75C37.4547 23.32 37.5547 22.93 37.7547 22.58C37.9647 22.23 38.2997 21.95 38.7597 21.74C39.2297 21.53 39.8597 21.425 40.6497 21.425H43.1697V22.46H40.7097C39.9897 22.46 39.5047 22.58 39.2547 22.82C39.0047 23.06 38.8797 23.35 38.8797 23.69C38.8797 24.08 39.0347 24.395 39.3447 24.635C39.6547 24.865 40.0847 24.98 40.6347 24.98C41.1747 24.98 41.6447 24.86 42.0447 24.62C42.4547 24.38 42.7497 24.03 42.9297 23.57L43.2147 24.56C43.0247 25.03 42.6897 25.405 42.2097 25.685C41.7297 25.955 41.1247 26.09 40.3947 26.09ZM50.8577 26.09C50.0477 26.09 49.3227 25.915 48.6827 25.565C48.0527 25.215 47.5577 24.735 47.1977 24.125C46.8377 23.515 46.6577 22.815 46.6577 22.025C46.6577 21.235 46.8377 20.535 47.1977 19.925C47.5577 19.315 48.0527 18.84 48.6827 18.5C49.3227 18.15 50.0477 17.975 50.8577 17.975C51.5777 17.975 52.2177 18.12 52.7777 18.41C53.3477 18.69 53.7877 19.11 54.0977 19.67L53.0027 20.375C52.7427 19.985 52.4227 19.7 52.0427 19.52C51.6727 19.33 51.2727 19.235 50.8427 19.235C50.3227 19.235 49.8577 19.35 49.4477 19.58C49.0377 19.81 48.7127 20.135 48.4727 20.555C48.2327 20.965 48.1127 21.455 48.1127 22.025C48.1127 22.595 48.2327 23.09 48.4727 23.51C48.7127 23.93 49.0377 24.255 49.4477 24.485C49.8577 24.715 50.3227 24.83 50.8427 24.83C51.2727 24.83 51.6727 24.74 52.0427 24.56C52.4227 24.37 52.7427 24.08 53.0027 23.69L54.0977 24.38C53.7877 24.93 53.3477 25.355 52.7777 25.655C52.2177 25.945 51.5777 26.09 50.8577 26.09ZM57.8645 26V18.935L58.2245 19.31H54.9545V18.05H62.2145V19.31H58.9595L59.3045 18.935V26H57.8645ZM64.522 29C64.142 29 63.772 28.935 63.412 28.805C63.052 28.685 62.742 28.505 62.482 28.265L63.097 27.185C63.297 27.375 63.517 27.52 63.757 27.62C63.997 27.72 64.252 27.77 64.522 27.77C64.872 27.77 65.162 27.68 65.392 27.5C65.622 27.32 65.837 27 66.037 26.54L66.532 25.445L66.682 25.265L69.802 18.05H71.212L67.357 26.795C67.127 27.355 66.867 27.795 66.577 28.115C66.297 28.435 65.987 28.66 65.647 28.79C65.307 28.93 64.932 29 64.522 29ZM66.412 26.255L62.782 18.05H64.282L67.372 25.13L66.412 26.255ZM73.1163 26V18.05H80.4813V26H79.0413V18.95L79.3863 19.31H74.2113L74.5563 18.95V26H73.1163ZM83.6977 26V18.05H85.1377V21.425H89.6677V18.05H91.1077V26H89.6677V22.67H85.1377V26H83.6977ZM94.3376 26V18.05H95.7776V23.84L100.653 18.05H101.958V26H100.518V20.21L95.6576 26H94.3376ZM105.183 26V18.05H106.623V23.84L111.498 18.05H112.803V26H111.363V20.21L106.503 26H105.183ZM108.903 17.015C108.173 17.015 107.598 16.84 107.178 16.49C106.768 16.13 106.558 15.615 106.548 14.945H107.523C107.533 15.325 107.658 15.625 107.898 15.845C108.148 16.065 108.478 16.175 108.888 16.175C109.298 16.175 109.628 16.065 109.878 15.845C110.128 15.625 110.258 15.325 110.268 14.945H111.273C111.263 15.615 111.048 16.13 110.628 16.49C110.208 16.84 109.633 17.015 108.903 17.015ZM126.246 26L123.171 22.13L124.356 21.41L127.941 26H126.246ZM120.486 26V18.05H121.926V26H120.486ZM121.491 22.64V21.41H124.116V22.64H121.491ZM124.476 22.19L123.141 22.01L126.186 18.05H127.731L124.476 22.19ZM134.096 26.09C133.436 26.09 132.831 25.94 132.281 25.64C131.741 25.33 131.306 24.875 130.976 24.275C130.656 23.675 130.496 22.925 130.496 22.025C130.496 21.125 130.651 20.375 130.961 19.775C131.281 19.175 131.711 18.725 132.251 18.425C132.801 18.125 133.416 17.975 134.096 17.975C134.876 17.975 135.566 18.145 136.166 18.485C136.766 18.825 137.241 19.3 137.591 19.91C137.941 20.51 138.116 21.215 138.116 22.025C138.116 22.835 137.941 23.545 137.591 24.155C137.241 24.765 136.766 25.24 136.166 25.58C135.566 25.92 134.876 26.09 134.096 26.09ZM129.881 28.91V18.05H131.261V20.195L131.171 22.04L131.321 23.885V28.91H129.881ZM133.976 24.83C134.486 24.83 134.941 24.715 135.341 24.485C135.751 24.255 136.071 23.93 136.301 23.51C136.541 23.08 136.661 22.585 136.661 22.025C136.661 21.455 136.541 20.965 136.301 20.555C136.071 20.135 135.751 19.81 135.341 19.58C134.941 19.35 134.486 19.235 133.976 19.235C133.476 19.235 133.021 19.35 132.611 19.58C132.211 19.81 131.891 20.135 131.651 20.555C131.421 20.965 131.306 21.455 131.306 22.025C131.306 22.585 131.421 23.08 131.651 23.51C131.891 23.93 132.211 24.255 132.611 24.485C133.021 24.715 133.476 24.83 133.976 24.83ZM144.043 26.09C143.243 26.09 142.533 25.915 141.913 25.565C141.293 25.215 140.803 24.735 140.443 24.125C140.083 23.505 139.903 22.805 139.903 22.025C139.903 21.235 140.083 20.535 140.443 19.925C140.803 19.315 141.293 18.84 141.913 18.5C142.533 18.15 143.243 17.975 144.043 17.975C144.833 17.975 145.538 18.15 146.158 18.5C146.788 18.84 147.278 19.315 147.628 19.925C147.988 20.525 148.168 21.225 148.168 22.025C148.168 22.815 147.988 23.515 147.628 24.125C147.278 24.735 146.788 25.215 146.158 25.565C145.538 25.915 144.833 26.09 144.043 26.09ZM144.043 24.83C144.553 24.83 145.008 24.715 145.408 24.485C145.818 24.255 146.138 23.93 146.368 23.51C146.598 23.08 146.713 22.585 146.713 22.025C146.713 21.455 146.598 20.965 146.368 20.555C146.138 20.135 145.818 19.81 145.408 19.58C145.008 19.35 144.553 19.235 144.043 19.235C143.533 19.235 143.078 19.35 142.678 19.58C142.278 19.81 141.958 20.135 141.718 20.555C141.478 20.965 141.358 21.455 141.358 22.025C141.358 22.585 141.478 23.08 141.718 23.51C141.958 23.93 142.278 24.255 142.678 24.485C143.078 24.715 143.533 24.83 144.043 24.83ZM156.437 26L153.362 22.13L154.547 21.41L158.132 26H156.437ZM150.677 26V18.05H152.117V26H150.677ZM151.682 22.64V21.41H154.307V22.64H151.682ZM154.667 22.19L153.332 22.01L156.377 18.05H157.922L154.667 22.19Z" fill="white"/>
<path d="M170.75 21H181.25" stroke="white" stroke-width="1.75" stroke-linecap="round" stroke-linejoin="round"/>
<path d="M176.75 25.5L181.25 21" stroke="white" stroke-width="1.75" stroke-linecap="round" stroke-linejoin="round"/>
<path d="M176.75 16.5L181.25 21" stroke="white" stroke-width="1.75" stroke-linecap="round" stroke-linejoin="round"/>
</g>
<defs>
<filter id="filter0_d_1_24179" x="0" y="0" width="209" height="46" filterUnits="userSpaceOnUse" color-interpolation-filters="sRGB">
<feFlood flood-opacity="0" result="BackgroundImageFix"/>
<feColorMatrix in="SourceAlpha" type="matrix" values="0 0 0 0 0 0 0 0 0 0 0 0 0 0 0 0 0 0 127 0" result="hardAlpha"/>
<feOffset dy="2"/>
<feGaussianBlur stdDeviation="2"/>
<feComposite in2="hardAlpha" operator="out"/>
<feColorMatrix type="matrix" values="0 0 0 0 0.647059 0 0 0 0 0.639216 0 0 0 0 0.682353 0 0 0 0.3 0"/>
<feBlend mode="normal" in2="BackgroundImageFix" result="effect1_dropShadow_1_24179"/>
<feBlend mode="normal" in="SourceGraphic" in2="effect1_dropShadow_1_24179" result="shape"/>
</filter>
</defs>
</svg>
