<svg width="41" height="40" viewBox="0 0 41 40" fill="none" xmlns="http://www.w3.org/2000/svg">
<rect x="0.5" width="40" height="40" rx="6" fill="#4B465C" fill-opacity="0.08"/>
<path d="M15.63 26V24.434L20.634 19.682C21.054 19.286 21.366 18.938 21.57 18.638C21.774 18.338 21.906 18.062 21.966 17.81C22.038 17.546 22.074 17.3 22.074 17.072C22.074 16.496 21.876 16.052 21.48 15.74C21.084 15.416 20.502 15.254 19.734 15.254C19.122 15.254 18.564 15.362 18.06 15.578C17.568 15.794 17.142 16.124 16.782 16.568L15.144 15.308C15.636 14.648 16.296 14.138 17.124 13.778C17.964 13.406 18.9 13.22 19.932 13.22C20.844 13.22 21.636 13.37 22.308 13.67C22.992 13.958 23.514 14.372 23.874 14.912C24.246 15.452 24.432 16.094 24.432 16.838C24.432 17.246 24.378 17.654 24.27 18.062C24.162 18.458 23.958 18.878 23.658 19.322C23.358 19.766 22.92 20.264 22.344 20.816L18.042 24.902L17.556 24.02H24.918V26H15.63Z" fill="#4B465C"/>
<path d="M15.63 26V24.434L20.634 19.682C21.054 19.286 21.366 18.938 21.57 18.638C21.774 18.338 21.906 18.062 21.966 17.81C22.038 17.546 22.074 17.3 22.074 17.072C22.074 16.496 21.876 16.052 21.48 15.74C21.084 15.416 20.502 15.254 19.734 15.254C19.122 15.254 18.564 15.362 18.06 15.578C17.568 15.794 17.142 16.124 16.782 16.568L15.144 15.308C15.636 14.648 16.296 14.138 17.124 13.778C17.964 13.406 18.9 13.22 19.932 13.22C20.844 13.22 21.636 13.37 22.308 13.67C22.992 13.958 23.514 14.372 23.874 14.912C24.246 15.452 24.432 16.094 24.432 16.838C24.432 17.246 24.378 17.654 24.27 18.062C24.162 18.458 23.958 18.878 23.658 19.322C23.358 19.766 22.92 20.264 22.344 20.816L18.042 24.902L17.556 24.02H24.918V26H15.63Z" fill="white" fill-opacity="0.2"/>
</svg>
